<svg width="3923" height="1005" viewBox="0 0 3923 1005" fill="none" xmlns="http://www.w3.org/2000/svg">
<path d="M2262.12 300.125C2262.12 275 2250.4 251.75 2230.49 237.875L2088.33 137.75C2064.51 120.875 2033.24 120.875 2009.42 137.75L1867.26 237.875C1847.71 251.75 1835.62 275 1835.62 300.125V513.125C1835.62 523.625 1843.44 531.875 1853.4 531.875H2244.35C2254.31 531.875 2262.12 523.625 2262.12 513.125V300.125ZM2048.88 438.125C2014.76 438.125 1986.68 408.5 1986.68 372.5C1986.68 336.5 2014.76 306.875 2048.88 306.875C2083 306.875 2111.07 336.5 2111.07 372.5C2111.07 408.5 2083 438.125 2048.88 438.125Z" fill="#DF8C06" fill-opacity="0.14"/>
<path d="M2510.92 831.875H2465.78V719.375C2499.54 707.75 2524.07 674.375 2524.07 635V560C2524.07 510.875 2486.04 470.75 2439.48 470.75C2392.92 470.75 2354.89 510.875 2354.89 560V635C2354.89 674 2379.06 707 2412.11 719V831.875H2262.12V606.875C2262.12 596.375 2254.31 588.125 2244.35 588.125H1853.4C1843.44 588.125 1835.62 596.375 1835.62 606.875V831.875H1800.08C1785.51 831.875 1773.43 844.625 1773.43 860C1773.43 875.375 1785.51 888.125 1800.08 888.125H2437.35C2438.06 888.125 2438.41 888.5 2439.12 888.5C2439.83 888.5 2440.19 888.125 2440.9 888.125H2510.92C2525.49 888.125 2537.57 875.375 2537.57 860C2537.57 844.625 2525.49 831.875 2510.92 831.875ZM2022.22 719.375C2022.22 704 2034.3 691.25 2048.87 691.25C2063.45 691.25 2075.53 704 2075.53 719.375V831.875H2022.22V719.375Z" fill="#DF8C06" fill-opacity="0.14"/>
<path d="M484.66 76.3191L195.551 788.049L414.551 618.049L549.051 286.549L630.051 455.049L737.551 374.049L596.551 63.0493C563.541 19.8299 523.606 34.8297 500.517 53.3034C493.12 59.2217 488.226 67.5423 484.66 76.3191Z" fill="url(#paint0_linear_3_10)"/>
<path d="M206.445 846.193L1129.05 138.549L791.551 471.549L946.861 818.378C951.919 829.672 954.588 842.075 952.998 854.346C942.404 936.112 886.75 928.109 847.671 907.099C835.646 900.634 827.038 889.546 821.3 877.158L682.051 576.549L292.751 948.374C285.061 955.719 275.667 961.294 265.337 963.814C153.465 991.106 164.661 917.588 189.208 866.711C193.144 858.552 199.257 851.707 206.445 846.193Z" fill="url(#paint1_linear_3_10)"/>
<path d="M1116.55 797.708C1106.22 797.708 1098.22 794.874 1092.55 789.208C1087.22 783.208 1084.55 775.041 1084.55 764.708V469.708C1084.55 459.041 1087.22 451.041 1092.55 445.707C1098.22 440.041 1106.22 437.207 1116.55 437.207C1126.88 437.207 1134.72 440.041 1140.05 445.707C1145.72 451.041 1148.55 459.041 1148.55 469.708V597.208H1149.55L1293.05 453.207C1298.38 447.874 1303.72 443.874 1309.05 441.207C1314.38 438.541 1320.38 437.207 1327.05 437.207C1336.72 437.207 1343.55 439.707 1347.55 444.708C1351.88 449.708 1353.55 455.541 1352.55 462.207C1351.88 468.874 1348.72 475.041 1343.05 480.707L1197.05 625.208L1197.55 596.208L1350.05 751.208C1357.05 757.874 1360.72 764.874 1361.05 772.208C1361.38 779.541 1359.05 785.708 1354.05 790.708C1349.38 795.374 1342.38 797.708 1333.05 797.708C1325.05 797.708 1318.55 796.041 1313.55 792.708C1308.88 789.374 1303.38 784.541 1297.05 778.208L1149.55 630.708H1148.55V764.708C1148.55 775.041 1145.88 783.208 1140.55 789.208C1135.22 794.874 1127.22 797.708 1116.55 797.708ZM1451.07 793.708C1440.07 793.708 1431.57 790.874 1425.57 785.208C1419.9 779.208 1417.07 770.708 1417.07 759.708V475.208C1417.07 464.208 1419.9 455.874 1425.57 450.208C1431.57 444.207 1440.07 441.207 1451.07 441.207H1629.57C1637.9 441.207 1644.24 443.374 1648.57 447.708C1653.24 452.041 1655.57 458.208 1655.57 466.208C1655.57 474.541 1653.24 481.041 1648.57 485.707C1644.24 490.041 1637.9 492.207 1629.57 492.207H1478.57V589.208H1618.57C1627.24 589.208 1633.74 591.374 1638.07 595.708C1642.4 600.041 1644.57 606.374 1644.57 614.708C1644.57 623.041 1642.4 629.374 1638.07 633.708C1633.74 638.041 1627.24 640.208 1618.57 640.208H1478.57V742.708H1629.57C1637.9 742.708 1644.24 744.874 1648.57 749.208C1653.24 753.541 1655.57 759.874 1655.57 768.208C1655.57 776.541 1653.24 782.874 1648.57 787.208C1644.24 791.541 1637.9 793.708 1629.57 793.708H1451.07ZM1729.91 793.708C1721.58 793.708 1714.74 792.041 1709.41 788.708C1704.41 785.374 1700.91 780.874 1698.91 775.208C1697.24 769.208 1697.24 762.708 1698.91 755.708C1700.91 748.374 1704.74 740.874 1710.41 733.208L1901.41 474.207V494.707H1724.91C1715.58 494.707 1708.41 492.374 1703.41 487.707C1698.74 483.041 1696.41 476.374 1696.41 467.708C1696.41 459.041 1698.74 452.541 1703.41 448.207C1708.41 443.541 1715.58 441.207 1724.91 441.207H1931.91C1940.24 441.207 1946.91 442.874 1951.91 446.207C1957.24 449.541 1960.74 454.041 1962.41 459.707C1964.41 465.374 1964.41 471.874 1962.41 479.208C1960.74 486.541 1957.08 494.041 1951.41 501.707L1760.41 760.208V740.208H1944.41C1953.74 740.208 1960.74 742.541 1965.41 747.208C1970.41 751.541 1972.91 758.041 1972.91 766.708C1972.91 775.374 1970.41 782.041 1965.41 786.708C1960.74 791.374 1953.74 793.708 1944.41 793.708H1729.91ZM2050.14 797.708C2039.81 797.708 2031.81 794.874 2026.14 789.208C2020.81 783.208 2018.14 775.041 2018.14 764.708V470.208C2018.14 459.541 2020.81 451.374 2026.14 445.707C2031.81 440.041 2039.81 437.207 2050.14 437.207C2060.48 437.207 2068.31 440.041 2073.64 445.707C2079.31 451.374 2082.14 459.541 2082.14 470.208V764.708C2082.14 775.041 2079.48 783.208 2074.14 789.208C2068.81 794.874 2060.81 797.708 2050.14 797.708ZM2189.26 797.708C2179.92 797.708 2172.76 795.041 2167.76 789.708C2162.76 784.374 2160.26 777.041 2160.26 767.708V467.207C2160.26 457.541 2162.92 450.208 2168.26 445.208C2173.59 439.874 2180.92 437.207 2190.26 437.207C2198.59 437.207 2205.09 438.874 2209.76 442.208C2214.76 445.208 2219.26 450.541 2223.26 458.208L2346.76 686.708H2330.76L2454.26 458.208C2458.26 450.541 2462.59 445.208 2467.26 442.208C2471.92 438.874 2478.42 437.207 2486.76 437.207C2496.09 437.207 2503.26 439.874 2508.26 445.208C2513.26 450.208 2515.76 457.541 2515.76 467.207V767.708C2515.76 777.041 2513.26 784.374 2508.26 789.708C2503.59 795.041 2496.42 797.708 2486.76 797.708C2477.42 797.708 2470.26 795.041 2465.26 789.708C2460.26 784.374 2457.76 777.041 2457.76 767.708V536.207H2468.76L2363.76 727.708C2360.42 733.374 2356.92 737.541 2353.26 740.208C2349.59 742.874 2344.59 744.208 2338.26 744.208C2331.92 744.208 2326.76 742.874 2322.76 740.208C2318.76 737.208 2315.26 733.041 2312.26 727.708L2206.26 535.708H2218.26V767.708C2218.26 777.041 2215.76 784.374 2210.76 789.708C2206.09 795.041 2198.92 797.708 2189.26 797.708ZM2627.34 793.708C2616.34 793.708 2607.84 790.874 2601.84 785.208C2596.17 779.208 2593.34 770.708 2593.34 759.708V475.208C2593.34 464.208 2596.17 455.874 2601.84 450.208C2607.84 444.207 2616.34 441.207 2627.34 441.207H2747.34C2772.01 441.207 2793.01 444.874 2810.34 452.208C2827.67 459.541 2840.84 470.041 2849.84 483.708C2859.17 497.374 2863.84 513.707 2863.84 532.708C2863.84 554.041 2857.67 572.041 2845.34 586.708C2833.01 601.374 2816.17 611.208 2794.84 616.208V608.708C2819.51 612.374 2838.67 621.708 2852.34 636.708C2866.01 651.708 2872.84 671.208 2872.84 695.208C2872.84 726.541 2862.17 750.874 2840.84 768.208C2819.84 785.208 2790.51 793.708 2752.84 793.708H2627.34ZM2654.84 745.208H2744.84C2767.51 745.208 2784.17 740.874 2794.84 732.208C2805.51 723.208 2810.84 709.874 2810.84 692.208C2810.84 674.208 2805.51 660.874 2794.84 652.208C2784.17 643.541 2767.51 639.208 2744.84 639.208H2654.84V745.208ZM2654.84 590.708H2736.34C2758.34 590.708 2774.67 586.541 2785.34 578.208C2796.34 569.541 2801.84 556.874 2801.84 540.208C2801.84 523.541 2796.34 511.041 2785.34 502.708C2774.67 494.041 2758.34 489.707 2736.34 489.707H2654.84V590.708ZM2969.58 797.708C2959.24 797.708 2951.24 794.874 2945.58 789.208C2940.24 783.208 2937.58 775.041 2937.58 764.708V470.208C2937.58 459.541 2940.24 451.374 2945.58 445.707C2951.24 440.041 2959.24 437.207 2969.58 437.207C2979.91 437.207 2987.74 440.041 2993.08 445.707C2998.74 451.374 3001.58 459.541 3001.58 470.208V764.708C3001.58 775.041 2998.91 783.208 2993.58 789.208C2988.24 794.874 2980.24 797.708 2969.58 797.708ZM3110.69 797.708C3100.36 797.708 3092.36 794.874 3086.69 789.208C3081.36 783.208 3078.69 775.041 3078.69 764.708V473.707C3078.69 463.041 3081.52 455.041 3087.19 449.708C3092.86 444.041 3100.86 441.207 3111.19 441.207H3231.69C3270.36 441.207 3300.19 450.541 3321.19 469.207C3342.19 487.541 3352.69 513.374 3352.69 546.708C3352.69 568.374 3347.86 587.041 3338.19 602.708C3328.86 618.374 3315.19 630.374 3297.19 638.708C3279.19 647.041 3257.36 651.208 3231.69 651.208L3236.19 643.708H3252.69C3266.36 643.708 3278.19 647.041 3288.19 653.708C3298.52 660.374 3307.52 670.874 3315.19 685.208L3352.69 754.708C3356.69 761.708 3358.52 768.541 3358.19 775.208C3357.86 781.874 3355.36 787.374 3350.69 791.708C3346.02 795.708 3339.19 797.708 3330.19 797.708C3321.19 797.708 3313.86 795.874 3308.19 792.208C3302.52 788.208 3297.52 782.208 3293.19 774.208L3242.69 681.208C3236.69 669.874 3229.52 662.374 3221.19 658.708C3213.19 654.708 3202.86 652.708 3190.19 652.708H3142.69V764.708C3142.69 775.041 3140.02 783.208 3134.69 789.208C3129.36 794.874 3121.36 797.708 3110.69 797.708ZM3142.69 605.208H3220.69C3243.69 605.208 3261.02 600.541 3272.69 591.208C3284.69 581.541 3290.69 567.208 3290.69 548.208C3290.69 529.541 3284.69 515.541 3272.69 506.207C3261.02 496.541 3243.69 491.708 3220.69 491.708H3142.69V605.208ZM3418.62 797.708C3410.62 797.708 3404.12 795.874 3399.12 792.208C3394.45 788.541 3391.62 783.708 3390.62 777.708C3389.62 771.374 3390.78 764.374 3394.12 756.708L3526.12 464.207C3530.45 454.541 3535.62 447.708 3541.62 443.707C3547.95 439.374 3555.12 437.207 3563.12 437.207C3570.78 437.207 3577.62 439.374 3583.62 443.707C3589.95 447.708 3595.28 454.541 3599.62 464.207L3732.12 756.708C3735.78 764.374 3737.12 771.374 3736.12 777.708C3735.12 784.041 3732.28 789.041 3727.62 792.708C3722.95 796.041 3716.78 797.708 3709.12 797.708C3699.78 797.708 3692.45 795.541 3687.12 791.208C3682.12 786.541 3677.62 779.541 3673.62 770.208L3641.12 694.708L3668.12 712.208H3457.12L3484.12 694.708L3452.12 770.208C3447.78 779.874 3443.28 786.874 3438.62 791.208C3433.95 795.541 3427.28 797.708 3418.62 797.708ZM3562.12 510.707L3492.12 677.208L3479.12 661.208H3646.12L3633.62 677.208L3563.12 510.707H3562.12Z" fill="url(#paint2_linear_3_10)"/>
<defs>
<linearGradient id="paint0_linear_3_10" x1="1129" y1="148" x2="202" y2="949.5" gradientUnits="userSpaceOnUse">
<stop stop-color="#E48F06"/>
<stop offset="1" stop-color="#AE6D05"/>
</linearGradient>
<linearGradient id="paint1_linear_3_10" x1="1129" y1="148" x2="202" y2="949.5" gradientUnits="userSpaceOnUse">
<stop stop-color="#E48F06"/>
<stop offset="1" stop-color="#AE6D05"/>
</linearGradient>
<linearGradient id="paint2_linear_3_10" x1="3283" y1="540.5" x2="1602" y2="1119.5" gradientUnits="userSpaceOnUse">
<stop stop-color="#F9A826"/>
<stop offset="1" stop-color="#BD7605"/>
</linearGradient>
</defs>
</svg>
