<svg width="1303" height="1005" viewBox="0 0 1303 1005" fill="none" xmlns="http://www.w3.org/2000/svg">
<path d="M484.66 76.3191L195.551 788.049L414.551 618.049L549.051 286.549L630.051 455.049L737.551 374.049L596.551 63.0493C563.541 19.8299 523.606 34.8297 500.517 53.3034C493.12 59.2217 488.226 67.5423 484.66 76.3191Z" fill="url(#paint0_linear_2_4)"/>
<path d="M206.445 846.193L1129.05 138.549L791.551 471.549L946.861 818.378C951.919 829.672 954.588 842.075 952.998 854.346C942.404 936.112 886.75 928.109 847.671 907.099C835.646 900.634 827.038 889.546 821.3 877.158L682.051 576.549L292.751 948.374C285.061 955.719 275.667 961.294 265.337 963.814C153.465 991.106 164.661 917.588 189.208 866.711C193.144 858.552 199.257 851.707 206.445 846.193Z" fill="url(#paint1_linear_2_4)"/>
<defs>
<linearGradient id="paint0_linear_2_4" x1="1129" y1="148" x2="202" y2="949.5" gradientUnits="userSpaceOnUse">
<stop stop-color="#E48F06"/>
<stop offset="1" stop-color="#AE6D05"/>
</linearGradient>
<linearGradient id="paint1_linear_2_4" x1="1129" y1="148" x2="202" y2="949.5" gradientUnits="userSpaceOnUse">
<stop stop-color="#E48F06"/>
<stop offset="1" stop-color="#AE6D05"/>
</linearGradient>
</defs>
</svg>
